<mxfile host="app.diagrams.net" modified="2024-07-17T10:09:59.607Z" agent="Mozilla/5.0 (Windows NT 10.0; Win64; x64) AppleWebKit/537.36 (KHTML, like Gecko) Chrome/126.0.0.0 Safari/537.36" etag="VUietMWDEknTlTw842rL" version="24.7.0" type="github">
  <diagram name="第 1 页" id="ZXi959offg9TOEU08AZm">
    <mxGraphModel dx="2440" dy="-3202" grid="1" gridSize="10" guides="1" tooltips="1" connect="1" arrows="1" fold="1" page="1" pageScale="1" pageWidth="291" pageHeight="413" math="0" shadow="0">
      <root>
        <mxCell id="0" />
        <mxCell id="1" parent="0" />
        <mxCell id="SkI0lWn-ay7iLgk8auJr-1006" value="" style="whiteSpace=wrap;html=1;" parent="1" vertex="1">
          <mxGeometry x="200" y="4576" width="1470" height="630" as="geometry" />
        </mxCell>
        <mxCell id="SkI0lWn-ay7iLgk8auJr-994" value="" style="whiteSpace=wrap;html=1;fillColor=#d5e8d4;strokeColor=#82b366;" parent="1" vertex="1">
          <mxGeometry x="1080" y="4823" width="580" height="360" as="geometry" />
        </mxCell>
        <mxCell id="SkI0lWn-ay7iLgk8auJr-993" value="" style="whiteSpace=wrap;html=1;fillColor=#d5e8d4;strokeColor=#82b366;" parent="1" vertex="1">
          <mxGeometry x="295" y="4823" width="580" height="360" as="geometry" />
        </mxCell>
        <mxCell id="SkI0lWn-ay7iLgk8auJr-1" value="" style="shape=mxgraph.cisco.switches.atm_switch;sketch=0;html=1;pointerEvents=1;dashed=0;fillColor=#036897;strokeColor=#ffffff;strokeWidth=2;verticalLabelPosition=bottom;verticalAlign=top;align=center;outlineConnect=0;" parent="1" vertex="1">
          <mxGeometry x="355" y="4840" width="40" height="36" as="geometry" />
        </mxCell>
        <mxCell id="SkI0lWn-ay7iLgk8auJr-2" value="" style="shape=mxgraph.rack.ibm.ibm_x3630_m3;html=1;labelPosition=right;align=left;spacingLeft=15;dashed=0;shadow=0;fillColor=#ffffff;" parent="1" vertex="1">
          <mxGeometry x="310" y="5050" width="160" height="30" as="geometry" />
        </mxCell>
        <mxCell id="SkI0lWn-ay7iLgk8auJr-3" style="rounded=0;orthogonalLoop=1;jettySize=auto;html=1;startArrow=none;startFill=0;strokeWidth=1;endArrow=none;endFill=0;strokeColor=#FF8000;exitX=0.25;exitY=0;exitDx=0;exitDy=0;" parent="1" source="6_YDa27rlPbmphGBdpoA-1" target="SkI0lWn-ay7iLgk8auJr-1" edge="1">
          <mxGeometry relative="1" as="geometry">
            <mxPoint x="330" y="5020" as="sourcePoint" />
          </mxGeometry>
        </mxCell>
        <mxCell id="SkI0lWn-ay7iLgk8auJr-4" value="2" style="rounded=0;whiteSpace=wrap;html=1;fillColor=#008a00;strokeColor=#005700;fontColor=#ffffff;" parent="1" vertex="1">
          <mxGeometry x="320" y="5040" width="10" height="10" as="geometry" />
        </mxCell>
        <mxCell id="SkI0lWn-ay7iLgk8auJr-5" value="&lt;font color=&quot;#ffffff&quot;&gt;1&lt;/font&gt;" style="rounded=0;whiteSpace=wrap;html=1;fillColor=#ffcd28;strokeColor=#d79b00;gradientColor=#ffa500;" parent="1" vertex="1">
          <mxGeometry x="390" y="5040" width="10" height="10" as="geometry" />
        </mxCell>
        <mxCell id="SkI0lWn-ay7iLgk8auJr-6" value="1" style="rounded=0;whiteSpace=wrap;html=1;fillColor=#6a00ff;strokeColor=#3700CC;fontColor=#ffffff;" parent="1" vertex="1">
          <mxGeometry x="350" y="5040" width="10" height="10" as="geometry" />
        </mxCell>
        <mxCell id="SkI0lWn-ay7iLgk8auJr-7" value="1" style="rounded=0;whiteSpace=wrap;html=1;fillColor=#1ba1e2;strokeColor=#006EAF;fontColor=#ffffff;" parent="1" vertex="1">
          <mxGeometry x="330" y="5040" width="10" height="10" as="geometry" />
        </mxCell>
        <mxCell id="SkI0lWn-ay7iLgk8auJr-8" value="&lt;font color=&quot;#ffffff&quot;&gt;1&lt;/font&gt;" style="rounded=0;whiteSpace=wrap;html=1;fillColor=#0000FF;strokeColor=#7F00FF;" parent="1" vertex="1">
          <mxGeometry x="410" y="5040" width="10" height="10" as="geometry" />
        </mxCell>
        <mxCell id="SkI0lWn-ay7iLgk8auJr-9" value="1" style="rounded=0;whiteSpace=wrap;html=1;fillColor=#a20025;strokeColor=#6F0000;fontColor=#ffffff;" parent="1" vertex="1">
          <mxGeometry x="370" y="5040" width="10" height="10" as="geometry" />
        </mxCell>
        <mxCell id="SkI0lWn-ay7iLgk8auJr-10" value="&lt;font color=&quot;#ffffff&quot;&gt;1&lt;/font&gt;" style="rounded=0;whiteSpace=wrap;html=1;fillColor=#e3c800;strokeColor=#B09500;fontColor=#000000;" parent="1" vertex="1">
          <mxGeometry x="430" y="5040" width="10" height="10" as="geometry" />
        </mxCell>
        <mxCell id="SkI0lWn-ay7iLgk8auJr-11" value="1" style="rounded=0;whiteSpace=wrap;html=1;fillColor=#0050ef;strokeColor=#001DBC;fontColor=#ffffff;" parent="1" vertex="1">
          <mxGeometry x="450" y="5040" width="10" height="10" as="geometry" />
        </mxCell>
        <mxCell id="SkI0lWn-ay7iLgk8auJr-21" value="" style="shape=mxgraph.cisco.switches.atm_switch;sketch=0;html=1;pointerEvents=1;dashed=0;fillColor=#036897;strokeColor=#ffffff;strokeWidth=2;verticalLabelPosition=bottom;verticalAlign=top;align=center;outlineConnect=0;" parent="1" vertex="1">
          <mxGeometry x="415" y="4840" width="40" height="36" as="geometry" />
        </mxCell>
        <mxCell id="SkI0lWn-ay7iLgk8auJr-22" value="" style="shape=mxgraph.cisco.switches.atm_switch;sketch=0;html=1;pointerEvents=1;dashed=0;fillColor=#036897;strokeColor=#ffffff;strokeWidth=2;verticalLabelPosition=bottom;verticalAlign=top;align=center;outlineConnect=0;" parent="1" vertex="1">
          <mxGeometry x="475" y="4840" width="40" height="36" as="geometry" />
        </mxCell>
        <mxCell id="SkI0lWn-ay7iLgk8auJr-23" value="" style="shape=mxgraph.cisco.switches.atm_switch;sketch=0;html=1;pointerEvents=1;dashed=0;fillColor=#036897;strokeColor=#ffffff;strokeWidth=2;verticalLabelPosition=bottom;verticalAlign=top;align=center;outlineConnect=0;" parent="1" vertex="1">
          <mxGeometry x="535" y="4840" width="40" height="36" as="geometry" />
        </mxCell>
        <mxCell id="SkI0lWn-ay7iLgk8auJr-26" value="" style="shape=mxgraph.cisco.switches.atm_switch;sketch=0;html=1;pointerEvents=1;dashed=0;fillColor=#036897;strokeColor=#ffffff;strokeWidth=2;verticalLabelPosition=bottom;verticalAlign=top;align=center;outlineConnect=0;" parent="1" vertex="1">
          <mxGeometry x="715" y="4840" width="40" height="36" as="geometry" />
        </mxCell>
        <mxCell id="SkI0lWn-ay7iLgk8auJr-27" value="" style="shape=mxgraph.cisco.switches.atm_switch;sketch=0;html=1;pointerEvents=1;dashed=0;fillColor=#036897;strokeColor=#ffffff;strokeWidth=2;verticalLabelPosition=bottom;verticalAlign=top;align=center;outlineConnect=0;" parent="1" vertex="1">
          <mxGeometry x="775" y="4840" width="40" height="36" as="geometry" />
        </mxCell>
        <mxCell id="SkI0lWn-ay7iLgk8auJr-28" style="rounded=0;orthogonalLoop=1;jettySize=auto;html=1;startArrow=none;startFill=0;strokeWidth=1;endArrow=none;endFill=0;strokeColor=#FF8000;entryX=0.5;entryY=1;entryDx=0;entryDy=0;entryPerimeter=0;exitX=0.5;exitY=0;exitDx=0;exitDy=0;" parent="1" source="SkI0lWn-ay7iLgk8auJr-4" target="SkI0lWn-ay7iLgk8auJr-21" edge="1">
          <mxGeometry relative="1" as="geometry">
            <mxPoint x="360" y="5020" as="sourcePoint" />
            <mxPoint x="383" y="4886" as="targetPoint" />
          </mxGeometry>
        </mxCell>
        <mxCell id="SkI0lWn-ay7iLgk8auJr-33" style="rounded=0;orthogonalLoop=1;jettySize=auto;html=1;startArrow=none;startFill=0;strokeWidth=1;endArrow=none;endFill=0;strokeColor=#FF8000;entryX=0.5;entryY=1;entryDx=0;entryDy=0;entryPerimeter=0;exitX=0.5;exitY=0;exitDx=0;exitDy=0;" parent="1" source="SkI0lWn-ay7iLgk8auJr-11" target="SkI0lWn-ay7iLgk8auJr-26" edge="1">
          <mxGeometry relative="1" as="geometry">
            <mxPoint x="460" y="5030" as="sourcePoint" />
            <mxPoint x="485" y="4926" as="targetPoint" />
          </mxGeometry>
        </mxCell>
        <mxCell id="SkI0lWn-ay7iLgk8auJr-34" style="rounded=0;orthogonalLoop=1;jettySize=auto;html=1;startArrow=none;startFill=0;strokeWidth=1;endArrow=none;endFill=0;strokeColor=#FF8000;entryX=0.5;entryY=1;entryDx=0;entryDy=0;entryPerimeter=0;exitX=0.5;exitY=0;exitDx=0;exitDy=0;" parent="1" source="6_YDa27rlPbmphGBdpoA-9" target="SkI0lWn-ay7iLgk8auJr-27" edge="1">
          <mxGeometry relative="1" as="geometry">
            <mxPoint x="480" y="5030" as="sourcePoint" />
            <mxPoint x="495" y="4936" as="targetPoint" />
          </mxGeometry>
        </mxCell>
        <mxCell id="SkI0lWn-ay7iLgk8auJr-36" style="rounded=0;orthogonalLoop=1;jettySize=auto;html=1;startArrow=none;startFill=0;strokeWidth=1;endArrow=none;endFill=0;strokeColor=#FF8000;entryX=0.5;entryY=1;entryDx=0;entryDy=0;entryPerimeter=0;exitX=0.5;exitY=0;exitDx=0;exitDy=0;" parent="1" source="6_YDa27rlPbmphGBdpoA-18" target="SkI0lWn-ay7iLgk8auJr-26" edge="1">
          <mxGeometry relative="1" as="geometry">
            <mxPoint x="800.5699999999999" y="5030.2" as="sourcePoint" />
            <mxPoint x="805" y="4886" as="targetPoint" />
          </mxGeometry>
        </mxCell>
        <mxCell id="SkI0lWn-ay7iLgk8auJr-41" style="rounded=0;orthogonalLoop=1;jettySize=auto;html=1;startArrow=none;startFill=0;strokeWidth=1;endArrow=none;endFill=0;strokeColor=#FF8000;entryX=0.5;entryY=1;entryDx=0;entryDy=0;entryPerimeter=0;exitX=0.5;exitY=0;exitDx=0;exitDy=0;" parent="1" source="6_YDa27rlPbmphGBdpoA-11" target="SkI0lWn-ay7iLgk8auJr-21" edge="1">
          <mxGeometry relative="1" as="geometry">
            <mxPoint x="750" y="5030" as="sourcePoint" />
            <mxPoint x="855" y="4936" as="targetPoint" />
          </mxGeometry>
        </mxCell>
        <mxCell id="SkI0lWn-ay7iLgk8auJr-42" style="rounded=0;orthogonalLoop=1;jettySize=auto;html=1;startArrow=none;startFill=0;strokeWidth=1;endArrow=none;endFill=0;strokeColor=#FF8000;entryX=1;entryY=0;entryDx=0;entryDy=0;exitX=0.5;exitY=0;exitDx=0;exitDy=0;" parent="1" source="6_YDa27rlPbmphGBdpoA-19" edge="1">
          <mxGeometry relative="1" as="geometry">
            <mxPoint x="740" y="5030" as="sourcePoint" />
            <mxPoint x="368" y="4876" as="targetPoint" />
          </mxGeometry>
        </mxCell>
        <mxCell id="SkI0lWn-ay7iLgk8auJr-43" value="" style="shape=mxgraph.cisco.switches.atm_switch;sketch=0;html=1;pointerEvents=1;dashed=0;fillColor=#036897;strokeColor=#ffffff;strokeWidth=2;verticalLabelPosition=bottom;verticalAlign=top;align=center;outlineConnect=0;" parent="1" vertex="1">
          <mxGeometry x="1125" y="4840" width="40" height="36" as="geometry" />
        </mxCell>
        <mxCell id="SkI0lWn-ay7iLgk8auJr-45" style="rounded=0;orthogonalLoop=1;jettySize=auto;html=1;exitX=0.5;exitY=0;exitDx=0;exitDy=0;startArrow=none;startFill=0;strokeWidth=1;endArrow=none;endFill=0;strokeColor=#FF8000;" parent="1" source="6_YDa27rlPbmphGBdpoA-42" target="SkI0lWn-ay7iLgk8auJr-43" edge="1">
          <mxGeometry relative="1" as="geometry">
            <mxPoint x="1127.5" y="5030" as="sourcePoint" />
          </mxGeometry>
        </mxCell>
        <mxCell id="SkI0lWn-ay7iLgk8auJr-63" value="" style="shape=mxgraph.cisco.switches.atm_switch;sketch=0;html=1;pointerEvents=1;dashed=0;fillColor=#036897;strokeColor=#ffffff;strokeWidth=2;verticalLabelPosition=bottom;verticalAlign=top;align=center;outlineConnect=0;" parent="1" vertex="1">
          <mxGeometry x="1185" y="4840" width="40" height="36" as="geometry" />
        </mxCell>
        <mxCell id="SkI0lWn-ay7iLgk8auJr-64" value="" style="shape=mxgraph.cisco.switches.atm_switch;sketch=0;html=1;pointerEvents=1;dashed=0;fillColor=#036897;strokeColor=#ffffff;strokeWidth=2;verticalLabelPosition=bottom;verticalAlign=top;align=center;outlineConnect=0;" parent="1" vertex="1">
          <mxGeometry x="1245" y="4840" width="40" height="36" as="geometry" />
        </mxCell>
        <mxCell id="SkI0lWn-ay7iLgk8auJr-65" value="" style="shape=mxgraph.cisco.switches.atm_switch;sketch=0;html=1;pointerEvents=1;dashed=0;fillColor=#036897;strokeColor=#ffffff;strokeWidth=2;verticalLabelPosition=bottom;verticalAlign=top;align=center;outlineConnect=0;" parent="1" vertex="1">
          <mxGeometry x="1305" y="4840" width="40" height="36" as="geometry" />
        </mxCell>
        <mxCell id="SkI0lWn-ay7iLgk8auJr-68" value="" style="shape=mxgraph.cisco.switches.atm_switch;sketch=0;html=1;pointerEvents=1;dashed=0;fillColor=#036897;strokeColor=#ffffff;strokeWidth=2;verticalLabelPosition=bottom;verticalAlign=top;align=center;outlineConnect=0;" parent="1" vertex="1">
          <mxGeometry x="1485" y="4840" width="40" height="36" as="geometry" />
        </mxCell>
        <mxCell id="SkI0lWn-ay7iLgk8auJr-69" value="" style="shape=mxgraph.cisco.switches.atm_switch;sketch=0;html=1;pointerEvents=1;dashed=0;fillColor=#036897;strokeColor=#ffffff;strokeWidth=2;verticalLabelPosition=bottom;verticalAlign=top;align=center;outlineConnect=0;" parent="1" vertex="1">
          <mxGeometry x="1545" y="4840" width="40" height="36" as="geometry" />
        </mxCell>
        <mxCell id="SkI0lWn-ay7iLgk8auJr-70" style="rounded=0;orthogonalLoop=1;jettySize=auto;html=1;startArrow=none;startFill=0;strokeWidth=1;endArrow=none;endFill=0;strokeColor=#FF8000;entryX=0.5;entryY=1;entryDx=0;entryDy=0;entryPerimeter=0;exitX=0.5;exitY=0;exitDx=0;exitDy=0;exitPerimeter=0;" parent="1" source="6_YDa27rlPbmphGBdpoA-34" target="SkI0lWn-ay7iLgk8auJr-63" edge="1">
          <mxGeometry relative="1" as="geometry">
            <mxPoint x="1137.5" y="5030" as="sourcePoint" />
            <mxPoint x="1153" y="4886" as="targetPoint" />
          </mxGeometry>
        </mxCell>
        <mxCell id="SkI0lWn-ay7iLgk8auJr-71" style="rounded=0;orthogonalLoop=1;jettySize=auto;html=1;startArrow=none;startFill=0;strokeWidth=1;endArrow=none;endFill=0;strokeColor=#FF8000;entryX=0.5;entryY=1;entryDx=0;entryDy=0;entryPerimeter=0;exitX=0.5;exitY=0;exitDx=0;exitDy=0;" parent="1" source="6_YDa27rlPbmphGBdpoA-37" target="SkI0lWn-ay7iLgk8auJr-64" edge="1">
          <mxGeometry relative="1" as="geometry">
            <mxPoint x="1150" y="5030" as="sourcePoint" />
            <mxPoint x="1215" y="4886" as="targetPoint" />
          </mxGeometry>
        </mxCell>
        <mxCell id="SkI0lWn-ay7iLgk8auJr-72" style="rounded=0;orthogonalLoop=1;jettySize=auto;html=1;startArrow=none;startFill=0;strokeWidth=1;endArrow=none;endFill=0;strokeColor=#FF8000;entryX=0.5;entryY=1;entryDx=0;entryDy=0;entryPerimeter=0;exitX=0.5;exitY=0;exitDx=0;exitDy=0;" parent="1" source="6_YDa27rlPbmphGBdpoA-43" target="SkI0lWn-ay7iLgk8auJr-65" edge="1">
          <mxGeometry relative="1" as="geometry">
            <mxPoint x="1160" y="5030" as="sourcePoint" />
            <mxPoint x="1225" y="4896" as="targetPoint" />
          </mxGeometry>
        </mxCell>
        <mxCell id="SkI0lWn-ay7iLgk8auJr-75" style="rounded=0;orthogonalLoop=1;jettySize=auto;html=1;startArrow=none;startFill=0;strokeWidth=1;endArrow=none;endFill=0;strokeColor=#FF8000;entryX=0.5;entryY=1;entryDx=0;entryDy=0;entryPerimeter=0;exitX=0.5;exitY=0;exitDx=0;exitDy=0;" parent="1" source="6_YDa27rlPbmphGBdpoA-41" target="SkI0lWn-ay7iLgk8auJr-68" edge="1">
          <mxGeometry relative="1" as="geometry">
            <mxPoint x="1190" y="5030" as="sourcePoint" />
            <mxPoint x="1255" y="4926" as="targetPoint" />
          </mxGeometry>
        </mxCell>
        <mxCell id="SkI0lWn-ay7iLgk8auJr-76" style="rounded=0;orthogonalLoop=1;jettySize=auto;html=1;startArrow=none;startFill=0;strokeWidth=1;endArrow=none;endFill=0;strokeColor=#FF8000;entryX=0.5;entryY=1;entryDx=0;entryDy=0;entryPerimeter=0;exitX=0.5;exitY=0;exitDx=0;exitDy=0;" parent="1" source="6_YDa27rlPbmphGBdpoA-49" target="SkI0lWn-ay7iLgk8auJr-69" edge="1">
          <mxGeometry relative="1" as="geometry">
            <mxPoint x="1200" y="5030" as="sourcePoint" />
            <mxPoint x="1265" y="4936" as="targetPoint" />
          </mxGeometry>
        </mxCell>
        <mxCell id="SkI0lWn-ay7iLgk8auJr-77" style="rounded=0;orthogonalLoop=1;jettySize=auto;html=1;startArrow=none;startFill=0;strokeWidth=1;endArrow=none;endFill=0;strokeColor=#FF8000;entryX=0.5;entryY=1;entryDx=0;entryDy=0;entryPerimeter=0;exitX=0.5;exitY=0;exitDx=0;exitDy=0;" parent="1" source="6_YDa27rlPbmphGBdpoA-66" target="SkI0lWn-ay7iLgk8auJr-69" edge="1">
          <mxGeometry relative="1" as="geometry">
            <mxPoint x="1582.5" y="5030" as="sourcePoint" />
            <mxPoint x="1275" y="4946" as="targetPoint" />
          </mxGeometry>
        </mxCell>
        <mxCell id="SkI0lWn-ay7iLgk8auJr-78" style="rounded=0;orthogonalLoop=1;jettySize=auto;html=1;startArrow=none;startFill=0;strokeWidth=1;endArrow=none;endFill=0;strokeColor=#FF8000;entryX=0.5;entryY=1;entryDx=0;entryDy=0;entryPerimeter=0;exitX=0.5;exitY=0;exitDx=0;exitDy=0;" parent="1" source="6_YDa27rlPbmphGBdpoA-58" target="SkI0lWn-ay7iLgk8auJr-68" edge="1">
          <mxGeometry relative="1" as="geometry">
            <mxPoint x="1570.5700000000002" y="5030.2" as="sourcePoint" />
            <mxPoint x="1575" y="4886" as="targetPoint" />
          </mxGeometry>
        </mxCell>
        <mxCell id="SkI0lWn-ay7iLgk8auJr-81" style="rounded=0;orthogonalLoop=1;jettySize=auto;html=1;startArrow=none;startFill=0;strokeWidth=1;endArrow=none;endFill=0;strokeColor=#FF8000;entryX=0.5;entryY=1;entryDx=0;entryDy=0;entryPerimeter=0;exitX=0.5;exitY=0;exitDx=0;exitDy=0;" parent="1" source="6_YDa27rlPbmphGBdpoA-60" target="SkI0lWn-ay7iLgk8auJr-65" edge="1">
          <mxGeometry relative="1" as="geometry">
            <mxPoint x="1540" y="5030" as="sourcePoint" />
            <mxPoint x="1605" y="4916" as="targetPoint" />
          </mxGeometry>
        </mxCell>
        <mxCell id="SkI0lWn-ay7iLgk8auJr-82" style="rounded=0;orthogonalLoop=1;jettySize=auto;html=1;startArrow=none;startFill=0;strokeWidth=1;endArrow=none;endFill=0;strokeColor=#FF8000;entryX=0.5;entryY=1;entryDx=0;entryDy=0;entryPerimeter=0;exitX=0.25;exitY=0;exitDx=0;exitDy=0;" parent="1" source="6_YDa27rlPbmphGBdpoA-54" target="SkI0lWn-ay7iLgk8auJr-64" edge="1">
          <mxGeometry relative="1" as="geometry">
            <mxPoint x="1530" y="5030" as="sourcePoint" />
            <mxPoint x="1615" y="4926" as="targetPoint" />
          </mxGeometry>
        </mxCell>
        <mxCell id="SkI0lWn-ay7iLgk8auJr-83" style="rounded=0;orthogonalLoop=1;jettySize=auto;html=1;startArrow=none;startFill=0;strokeWidth=1;endArrow=none;endFill=0;strokeColor=#FF8000;entryX=0.5;entryY=1;entryDx=0;entryDy=0;entryPerimeter=0;exitX=0.5;exitY=0;exitDx=0;exitDy=0;" parent="1" source="6_YDa27rlPbmphGBdpoA-51" target="SkI0lWn-ay7iLgk8auJr-63" edge="1">
          <mxGeometry relative="1" as="geometry">
            <mxPoint x="1520" y="5030" as="sourcePoint" />
            <mxPoint x="1625" y="4936" as="targetPoint" />
          </mxGeometry>
        </mxCell>
        <mxCell id="SkI0lWn-ay7iLgk8auJr-84" style="rounded=0;orthogonalLoop=1;jettySize=auto;html=1;startArrow=none;startFill=0;strokeWidth=1;endArrow=none;endFill=0;strokeColor=#FF8000;entryX=0.5;entryY=1;entryDx=0;entryDy=0;entryPerimeter=0;exitX=0.5;exitY=0;exitDx=0;exitDy=0;" parent="1" source="6_YDa27rlPbmphGBdpoA-59" target="SkI0lWn-ay7iLgk8auJr-43" edge="1">
          <mxGeometry relative="1" as="geometry">
            <mxPoint x="1510" y="5030" as="sourcePoint" />
            <mxPoint x="1635" y="4946" as="targetPoint" />
          </mxGeometry>
        </mxCell>
        <mxCell id="SkI0lWn-ay7iLgk8auJr-85" value="" style="shape=mxgraph.cisco.switches.atm_switch;sketch=0;html=1;pointerEvents=1;dashed=0;fillColor=#036897;strokeColor=#ffffff;strokeWidth=2;verticalLabelPosition=bottom;verticalAlign=top;align=center;outlineConnect=0;" parent="1" vertex="1">
          <mxGeometry x="425" y="4600" width="40" height="36" as="geometry" />
        </mxCell>
        <mxCell id="SkI0lWn-ay7iLgk8auJr-86" value="" style="shape=mxgraph.cisco.switches.atm_switch;sketch=0;html=1;pointerEvents=1;dashed=0;fillColor=#036897;strokeColor=#ffffff;strokeWidth=2;verticalLabelPosition=bottom;verticalAlign=top;align=center;outlineConnect=0;" parent="1" vertex="1">
          <mxGeometry x="695" y="4600" width="40" height="36" as="geometry" />
        </mxCell>
        <mxCell id="SkI0lWn-ay7iLgk8auJr-87" value="" style="shape=mxgraph.cisco.switches.atm_switch;sketch=0;html=1;pointerEvents=1;dashed=0;fillColor=#036897;strokeColor=#ffffff;strokeWidth=2;verticalLabelPosition=bottom;verticalAlign=top;align=center;outlineConnect=0;" parent="1" vertex="1">
          <mxGeometry x="1475" y="4600" width="40" height="36" as="geometry" />
        </mxCell>
        <mxCell id="SkI0lWn-ay7iLgk8auJr-88" value="&lt;font style=&quot;font-size: 50px;&quot;&gt;...&lt;/font&gt;" style="text;strokeColor=none;align=center;fillColor=none;html=1;verticalAlign=middle;whiteSpace=wrap;rounded=0;" parent="1" vertex="1">
          <mxGeometry x="935" y="4930" width="60" height="50" as="geometry" />
        </mxCell>
        <mxCell id="SkI0lWn-ay7iLgk8auJr-89" value="&lt;font style=&quot;font-size: 50px;&quot;&gt;...&lt;/font&gt;" style="text;strokeColor=none;align=center;fillColor=none;html=1;verticalAlign=middle;whiteSpace=wrap;rounded=0;" parent="1" vertex="1">
          <mxGeometry x="945" y="4590" width="60" height="30" as="geometry" />
        </mxCell>
        <mxCell id="SkI0lWn-ay7iLgk8auJr-90" style="rounded=0;orthogonalLoop=1;jettySize=auto;html=1;exitX=0.5;exitY=0;exitDx=0;exitDy=0;startArrow=none;startFill=0;strokeWidth=1;endArrow=none;endFill=0;strokeColor=#FF8000;entryX=0.5;entryY=1;entryDx=0;entryDy=0;entryPerimeter=0;exitPerimeter=0;" parent="1" source="SkI0lWn-ay7iLgk8auJr-1" target="SkI0lWn-ay7iLgk8auJr-85" edge="1">
          <mxGeometry relative="1" as="geometry">
            <mxPoint x="367" y="5040" as="sourcePoint" />
            <mxPoint x="383" y="4886" as="targetPoint" />
          </mxGeometry>
        </mxCell>
        <mxCell id="SkI0lWn-ay7iLgk8auJr-91" style="rounded=0;orthogonalLoop=1;jettySize=auto;html=1;exitX=0.5;exitY=0;exitDx=0;exitDy=0;startArrow=none;startFill=0;strokeWidth=1;endArrow=none;endFill=0;strokeColor=#FF8000;entryX=0.5;entryY=1;entryDx=0;entryDy=0;entryPerimeter=0;exitPerimeter=0;" parent="1" source="SkI0lWn-ay7iLgk8auJr-1" target="SkI0lWn-ay7iLgk8auJr-86" edge="1">
          <mxGeometry relative="1" as="geometry">
            <mxPoint x="385" y="4850" as="sourcePoint" />
            <mxPoint x="455" y="4686" as="targetPoint" />
          </mxGeometry>
        </mxCell>
        <mxCell id="SkI0lWn-ay7iLgk8auJr-92" style="rounded=0;orthogonalLoop=1;jettySize=auto;html=1;exitX=0.5;exitY=0;exitDx=0;exitDy=0;startArrow=none;startFill=0;strokeWidth=1;endArrow=none;endFill=0;strokeColor=#FF8000;entryX=0.5;entryY=1;entryDx=0;entryDy=0;entryPerimeter=0;exitPerimeter=0;" parent="1" source="SkI0lWn-ay7iLgk8auJr-21" target="SkI0lWn-ay7iLgk8auJr-85" edge="1">
          <mxGeometry relative="1" as="geometry">
            <mxPoint x="385" y="4850" as="sourcePoint" />
            <mxPoint x="725" y="4686" as="targetPoint" />
          </mxGeometry>
        </mxCell>
        <mxCell id="SkI0lWn-ay7iLgk8auJr-93" style="rounded=0;orthogonalLoop=1;jettySize=auto;html=1;exitX=0.5;exitY=0;exitDx=0;exitDy=0;startArrow=none;startFill=0;strokeWidth=1;endArrow=none;endFill=0;strokeColor=#FF8000;entryX=0.5;entryY=1;entryDx=0;entryDy=0;entryPerimeter=0;exitPerimeter=0;" parent="1" source="SkI0lWn-ay7iLgk8auJr-21" target="SkI0lWn-ay7iLgk8auJr-86" edge="1">
          <mxGeometry relative="1" as="geometry">
            <mxPoint x="445" y="4850" as="sourcePoint" />
            <mxPoint x="455" y="4686" as="targetPoint" />
          </mxGeometry>
        </mxCell>
        <mxCell id="SkI0lWn-ay7iLgk8auJr-94" style="rounded=0;orthogonalLoop=1;jettySize=auto;html=1;startArrow=none;startFill=0;strokeWidth=1;endArrow=none;endFill=0;strokeColor=#FF8000;entryX=0.5;entryY=1;entryDx=0;entryDy=0;entryPerimeter=0;exitX=0.5;exitY=0;exitDx=0;exitDy=0;exitPerimeter=0;" parent="1" source="SkI0lWn-ay7iLgk8auJr-22" target="SkI0lWn-ay7iLgk8auJr-85" edge="1">
          <mxGeometry relative="1" as="geometry">
            <mxPoint x="455" y="4860" as="sourcePoint" />
            <mxPoint x="465" y="4696" as="targetPoint" />
          </mxGeometry>
        </mxCell>
        <mxCell id="SkI0lWn-ay7iLgk8auJr-95" style="rounded=0;orthogonalLoop=1;jettySize=auto;html=1;startArrow=none;startFill=0;strokeWidth=1;endArrow=none;endFill=0;strokeColor=#FF8000;entryX=0.5;entryY=1;entryDx=0;entryDy=0;entryPerimeter=0;exitX=0.5;exitY=0;exitDx=0;exitDy=0;exitPerimeter=0;" parent="1" source="SkI0lWn-ay7iLgk8auJr-23" target="SkI0lWn-ay7iLgk8auJr-85" edge="1">
          <mxGeometry relative="1" as="geometry">
            <mxPoint x="505" y="4850" as="sourcePoint" />
            <mxPoint x="455" y="4686" as="targetPoint" />
          </mxGeometry>
        </mxCell>
        <mxCell id="SkI0lWn-ay7iLgk8auJr-98" style="rounded=0;orthogonalLoop=1;jettySize=auto;html=1;startArrow=none;startFill=0;strokeWidth=1;endArrow=none;endFill=0;strokeColor=#FF8000;exitX=0.5;exitY=0;exitDx=0;exitDy=0;exitPerimeter=0;entryX=0.5;entryY=1;entryDx=0;entryDy=0;entryPerimeter=0;" parent="1" source="SkI0lWn-ay7iLgk8auJr-26" target="SkI0lWn-ay7iLgk8auJr-85" edge="1">
          <mxGeometry relative="1" as="geometry">
            <mxPoint x="535" y="4880" as="sourcePoint" />
            <mxPoint x="445" y="4680" as="targetPoint" />
          </mxGeometry>
        </mxCell>
        <mxCell id="SkI0lWn-ay7iLgk8auJr-99" style="rounded=0;orthogonalLoop=1;jettySize=auto;html=1;startArrow=none;startFill=0;strokeWidth=1;endArrow=none;endFill=0;strokeColor=#FF8000;entryX=0.5;entryY=1;entryDx=0;entryDy=0;entryPerimeter=0;exitX=0.5;exitY=0;exitDx=0;exitDy=0;exitPerimeter=0;" parent="1" source="SkI0lWn-ay7iLgk8auJr-27" target="SkI0lWn-ay7iLgk8auJr-85" edge="1">
          <mxGeometry relative="1" as="geometry">
            <mxPoint x="545" y="4890" as="sourcePoint" />
            <mxPoint x="495" y="4726" as="targetPoint" />
          </mxGeometry>
        </mxCell>
        <mxCell id="SkI0lWn-ay7iLgk8auJr-100" style="rounded=0;orthogonalLoop=1;jettySize=auto;html=1;exitX=0.5;exitY=0;exitDx=0;exitDy=0;startArrow=none;startFill=0;strokeWidth=1;endArrow=none;endFill=0;strokeColor=#FF8000;entryX=0.5;entryY=1;entryDx=0;entryDy=0;entryPerimeter=0;exitPerimeter=0;" parent="1" source="SkI0lWn-ay7iLgk8auJr-22" target="SkI0lWn-ay7iLgk8auJr-86" edge="1">
          <mxGeometry relative="1" as="geometry">
            <mxPoint x="445" y="4850" as="sourcePoint" />
            <mxPoint x="725" y="4686" as="targetPoint" />
          </mxGeometry>
        </mxCell>
        <mxCell id="SkI0lWn-ay7iLgk8auJr-101" style="rounded=0;orthogonalLoop=1;jettySize=auto;html=1;startArrow=none;startFill=0;strokeWidth=1;endArrow=none;endFill=0;strokeColor=#FF8000;entryX=0.5;entryY=1;entryDx=0;entryDy=0;entryPerimeter=0;" parent="1" target="SkI0lWn-ay7iLgk8auJr-86" edge="1">
          <mxGeometry relative="1" as="geometry">
            <mxPoint x="555" y="4840" as="sourcePoint" />
            <mxPoint x="735" y="4696" as="targetPoint" />
          </mxGeometry>
        </mxCell>
        <mxCell id="SkI0lWn-ay7iLgk8auJr-104" style="rounded=0;orthogonalLoop=1;jettySize=auto;html=1;startArrow=none;startFill=0;strokeWidth=1;endArrow=none;endFill=0;strokeColor=#FF8000;entryX=0.5;entryY=1;entryDx=0;entryDy=0;entryPerimeter=0;" parent="1" target="SkI0lWn-ay7iLgk8auJr-86" edge="1">
          <mxGeometry relative="1" as="geometry">
            <mxPoint x="735" y="4840" as="sourcePoint" />
            <mxPoint x="765" y="4726" as="targetPoint" />
          </mxGeometry>
        </mxCell>
        <mxCell id="SkI0lWn-ay7iLgk8auJr-105" style="rounded=0;orthogonalLoop=1;jettySize=auto;html=1;exitX=0.5;exitY=0;exitDx=0;exitDy=0;startArrow=none;startFill=0;strokeWidth=1;endArrow=none;endFill=0;strokeColor=#FF8000;entryX=0.5;entryY=1;entryDx=0;entryDy=0;entryPerimeter=0;exitPerimeter=0;" parent="1" source="SkI0lWn-ay7iLgk8auJr-27" target="SkI0lWn-ay7iLgk8auJr-86" edge="1">
          <mxGeometry relative="1" as="geometry">
            <mxPoint x="495" y="4900" as="sourcePoint" />
            <mxPoint x="775" y="4736" as="targetPoint" />
          </mxGeometry>
        </mxCell>
        <mxCell id="SkI0lWn-ay7iLgk8auJr-106" style="rounded=0;orthogonalLoop=1;jettySize=auto;html=1;exitX=0.5;exitY=0;exitDx=0;exitDy=0;startArrow=none;startFill=0;strokeWidth=1;endArrow=none;endFill=0;strokeColor=#FF8000;entryX=0.5;entryY=1;entryDx=0;entryDy=0;entryPerimeter=0;exitPerimeter=0;" parent="1" source="SkI0lWn-ay7iLgk8auJr-1" target="SkI0lWn-ay7iLgk8auJr-87" edge="1">
          <mxGeometry relative="1" as="geometry">
            <mxPoint x="805" y="4850" as="sourcePoint" />
            <mxPoint x="725" y="4686" as="targetPoint" />
          </mxGeometry>
        </mxCell>
        <mxCell id="SkI0lWn-ay7iLgk8auJr-107" style="rounded=0;orthogonalLoop=1;jettySize=auto;html=1;exitX=0.5;exitY=0;exitDx=0;exitDy=0;startArrow=none;startFill=0;strokeWidth=1;endArrow=none;endFill=0;strokeColor=#FF8000;entryX=0.5;entryY=1;entryDx=0;entryDy=0;entryPerimeter=0;exitPerimeter=0;" parent="1" source="SkI0lWn-ay7iLgk8auJr-21" target="SkI0lWn-ay7iLgk8auJr-87" edge="1">
          <mxGeometry relative="1" as="geometry">
            <mxPoint x="385" y="4850" as="sourcePoint" />
            <mxPoint x="1505" y="4686" as="targetPoint" />
          </mxGeometry>
        </mxCell>
        <mxCell id="SkI0lWn-ay7iLgk8auJr-108" style="rounded=0;orthogonalLoop=1;jettySize=auto;html=1;exitX=0.5;exitY=0;exitDx=0;exitDy=0;startArrow=none;startFill=0;strokeWidth=1;endArrow=none;endFill=0;strokeColor=#FF8000;entryX=0.5;entryY=1;entryDx=0;entryDy=0;entryPerimeter=0;exitPerimeter=0;" parent="1" source="SkI0lWn-ay7iLgk8auJr-22" target="SkI0lWn-ay7iLgk8auJr-87" edge="1">
          <mxGeometry relative="1" as="geometry">
            <mxPoint x="395" y="4860" as="sourcePoint" />
            <mxPoint x="1515" y="4696" as="targetPoint" />
          </mxGeometry>
        </mxCell>
        <mxCell id="SkI0lWn-ay7iLgk8auJr-109" style="rounded=0;orthogonalLoop=1;jettySize=auto;html=1;exitX=0.5;exitY=0;exitDx=0;exitDy=0;startArrow=none;startFill=0;strokeWidth=1;endArrow=none;endFill=0;strokeColor=#FF8000;exitPerimeter=0;entryX=0.5;entryY=1;entryDx=0;entryDy=0;entryPerimeter=0;" parent="1" source="SkI0lWn-ay7iLgk8auJr-23" target="SkI0lWn-ay7iLgk8auJr-87" edge="1">
          <mxGeometry relative="1" as="geometry">
            <mxPoint x="405" y="4870" as="sourcePoint" />
            <mxPoint x="1495" y="4680" as="targetPoint" />
          </mxGeometry>
        </mxCell>
        <mxCell id="SkI0lWn-ay7iLgk8auJr-112" style="rounded=0;orthogonalLoop=1;jettySize=auto;html=1;exitX=0.5;exitY=0;exitDx=0;exitDy=0;startArrow=none;startFill=0;strokeWidth=1;endArrow=none;endFill=0;strokeColor=#FF8000;entryX=0.5;entryY=1;entryDx=0;entryDy=0;entryPerimeter=0;exitPerimeter=0;" parent="1" source="SkI0lWn-ay7iLgk8auJr-26" target="SkI0lWn-ay7iLgk8auJr-87" edge="1">
          <mxGeometry relative="1" as="geometry">
            <mxPoint x="435" y="4900" as="sourcePoint" />
            <mxPoint x="1555" y="4736" as="targetPoint" />
          </mxGeometry>
        </mxCell>
        <mxCell id="SkI0lWn-ay7iLgk8auJr-113" style="rounded=0;orthogonalLoop=1;jettySize=auto;html=1;exitX=0.5;exitY=0;exitDx=0;exitDy=0;startArrow=none;startFill=0;strokeWidth=1;endArrow=none;endFill=0;strokeColor=#FF8000;entryX=0.5;entryY=1;entryDx=0;entryDy=0;entryPerimeter=0;exitPerimeter=0;" parent="1" source="SkI0lWn-ay7iLgk8auJr-27" target="SkI0lWn-ay7iLgk8auJr-87" edge="1">
          <mxGeometry relative="1" as="geometry">
            <mxPoint x="445" y="4910" as="sourcePoint" />
            <mxPoint x="1565" y="4746" as="targetPoint" />
          </mxGeometry>
        </mxCell>
        <mxCell id="SkI0lWn-ay7iLgk8auJr-114" style="rounded=0;orthogonalLoop=1;jettySize=auto;html=1;exitX=0.5;exitY=0;exitDx=0;exitDy=0;startArrow=none;startFill=0;strokeWidth=1;endArrow=none;endFill=0;strokeColor=#FF8000;entryX=0.5;entryY=1;entryDx=0;entryDy=0;entryPerimeter=0;exitPerimeter=0;" parent="1" source="SkI0lWn-ay7iLgk8auJr-43" target="SkI0lWn-ay7iLgk8auJr-87" edge="1">
          <mxGeometry relative="1" as="geometry">
            <mxPoint x="455" y="4920" as="sourcePoint" />
            <mxPoint x="1575" y="4756" as="targetPoint" />
          </mxGeometry>
        </mxCell>
        <mxCell id="SkI0lWn-ay7iLgk8auJr-115" style="rounded=0;orthogonalLoop=1;jettySize=auto;html=1;exitX=0.5;exitY=0;exitDx=0;exitDy=0;startArrow=none;startFill=0;strokeWidth=1;endArrow=none;endFill=0;strokeColor=#FF8000;entryX=0.5;entryY=1;entryDx=0;entryDy=0;entryPerimeter=0;exitPerimeter=0;" parent="1" source="SkI0lWn-ay7iLgk8auJr-43" target="SkI0lWn-ay7iLgk8auJr-85" edge="1">
          <mxGeometry relative="1" as="geometry">
            <mxPoint x="1155" y="4850" as="sourcePoint" />
            <mxPoint x="1505" y="4686" as="targetPoint" />
          </mxGeometry>
        </mxCell>
        <mxCell id="SkI0lWn-ay7iLgk8auJr-116" style="rounded=0;orthogonalLoop=1;jettySize=auto;html=1;exitX=0.5;exitY=0;exitDx=0;exitDy=0;startArrow=none;startFill=0;strokeWidth=1;endArrow=none;endFill=0;strokeColor=#FF8000;entryX=0.5;entryY=1;entryDx=0;entryDy=0;entryPerimeter=0;exitPerimeter=0;" parent="1" source="SkI0lWn-ay7iLgk8auJr-63" target="SkI0lWn-ay7iLgk8auJr-85" edge="1">
          <mxGeometry relative="1" as="geometry">
            <mxPoint x="1155" y="4850" as="sourcePoint" />
            <mxPoint x="455" y="4686" as="targetPoint" />
          </mxGeometry>
        </mxCell>
        <mxCell id="SkI0lWn-ay7iLgk8auJr-117" style="rounded=0;orthogonalLoop=1;jettySize=auto;html=1;exitX=0.5;exitY=0;exitDx=0;exitDy=0;startArrow=none;startFill=0;strokeWidth=1;endArrow=none;endFill=0;strokeColor=#FF8000;entryX=0.5;entryY=1;entryDx=0;entryDy=0;entryPerimeter=0;exitPerimeter=0;" parent="1" source="SkI0lWn-ay7iLgk8auJr-64" target="SkI0lWn-ay7iLgk8auJr-85" edge="1">
          <mxGeometry relative="1" as="geometry">
            <mxPoint x="1165" y="4860" as="sourcePoint" />
            <mxPoint x="465" y="4696" as="targetPoint" />
          </mxGeometry>
        </mxCell>
        <mxCell id="SkI0lWn-ay7iLgk8auJr-118" style="rounded=0;orthogonalLoop=1;jettySize=auto;html=1;exitX=0.5;exitY=0;exitDx=0;exitDy=0;startArrow=none;startFill=0;strokeWidth=1;endArrow=none;endFill=0;strokeColor=#FF8000;entryX=0.5;entryY=1;entryDx=0;entryDy=0;entryPerimeter=0;exitPerimeter=0;" parent="1" source="SkI0lWn-ay7iLgk8auJr-65" target="SkI0lWn-ay7iLgk8auJr-85" edge="1">
          <mxGeometry relative="1" as="geometry">
            <mxPoint x="1175" y="4870" as="sourcePoint" />
            <mxPoint x="475" y="4706" as="targetPoint" />
          </mxGeometry>
        </mxCell>
        <mxCell id="SkI0lWn-ay7iLgk8auJr-121" style="rounded=0;orthogonalLoop=1;jettySize=auto;html=1;exitX=0.5;exitY=0;exitDx=0;exitDy=0;startArrow=none;startFill=0;strokeWidth=1;endArrow=none;endFill=0;strokeColor=#FF8000;entryX=0.5;entryY=1;entryDx=0;entryDy=0;entryPerimeter=0;exitPerimeter=0;" parent="1" source="SkI0lWn-ay7iLgk8auJr-68" target="SkI0lWn-ay7iLgk8auJr-85" edge="1">
          <mxGeometry relative="1" as="geometry">
            <mxPoint x="1205" y="4900" as="sourcePoint" />
            <mxPoint x="505" y="4736" as="targetPoint" />
          </mxGeometry>
        </mxCell>
        <mxCell id="SkI0lWn-ay7iLgk8auJr-122" style="rounded=0;orthogonalLoop=1;jettySize=auto;html=1;exitX=0.5;exitY=0;exitDx=0;exitDy=0;startArrow=none;startFill=0;strokeWidth=1;endArrow=none;endFill=0;strokeColor=#FF8000;entryX=0.5;entryY=1;entryDx=0;entryDy=0;entryPerimeter=0;exitPerimeter=0;" parent="1" source="SkI0lWn-ay7iLgk8auJr-69" target="SkI0lWn-ay7iLgk8auJr-85" edge="1">
          <mxGeometry relative="1" as="geometry">
            <mxPoint x="1215" y="4910" as="sourcePoint" />
            <mxPoint x="515" y="4746" as="targetPoint" />
          </mxGeometry>
        </mxCell>
        <mxCell id="SkI0lWn-ay7iLgk8auJr-123" style="rounded=0;orthogonalLoop=1;jettySize=auto;html=1;exitX=0.5;exitY=0;exitDx=0;exitDy=0;startArrow=none;startFill=0;strokeWidth=1;endArrow=none;endFill=0;strokeColor=#FF8000;entryX=0.5;entryY=1;entryDx=0;entryDy=0;entryPerimeter=0;exitPerimeter=0;" parent="1" source="SkI0lWn-ay7iLgk8auJr-43" target="SkI0lWn-ay7iLgk8auJr-86" edge="1">
          <mxGeometry relative="1" as="geometry">
            <mxPoint x="1225" y="4920" as="sourcePoint" />
            <mxPoint x="525" y="4756" as="targetPoint" />
          </mxGeometry>
        </mxCell>
        <mxCell id="SkI0lWn-ay7iLgk8auJr-124" style="rounded=0;orthogonalLoop=1;jettySize=auto;html=1;exitX=0.5;exitY=0;exitDx=0;exitDy=0;startArrow=none;startFill=0;strokeWidth=1;endArrow=none;endFill=0;strokeColor=#FF8000;entryX=0.5;entryY=1;entryDx=0;entryDy=0;entryPerimeter=0;exitPerimeter=0;" parent="1" source="SkI0lWn-ay7iLgk8auJr-63" target="SkI0lWn-ay7iLgk8auJr-86" edge="1">
          <mxGeometry relative="1" as="geometry">
            <mxPoint x="1235" y="4930" as="sourcePoint" />
            <mxPoint x="535" y="4766" as="targetPoint" />
          </mxGeometry>
        </mxCell>
        <mxCell id="SkI0lWn-ay7iLgk8auJr-125" style="rounded=0;orthogonalLoop=1;jettySize=auto;html=1;exitX=0.5;exitY=0;exitDx=0;exitDy=0;startArrow=none;startFill=0;strokeWidth=1;endArrow=none;endFill=0;strokeColor=#FF8000;entryX=0.5;entryY=1;entryDx=0;entryDy=0;entryPerimeter=0;exitPerimeter=0;" parent="1" source="SkI0lWn-ay7iLgk8auJr-64" target="SkI0lWn-ay7iLgk8auJr-86" edge="1">
          <mxGeometry relative="1" as="geometry">
            <mxPoint x="1245" y="4940" as="sourcePoint" />
            <mxPoint x="545" y="4776" as="targetPoint" />
          </mxGeometry>
        </mxCell>
        <mxCell id="SkI0lWn-ay7iLgk8auJr-126" style="rounded=0;orthogonalLoop=1;jettySize=auto;html=1;exitX=0.5;exitY=0;exitDx=0;exitDy=0;startArrow=none;startFill=0;strokeWidth=1;endArrow=none;endFill=0;strokeColor=#FF8000;entryX=0.5;entryY=1;entryDx=0;entryDy=0;entryPerimeter=0;exitPerimeter=0;" parent="1" source="SkI0lWn-ay7iLgk8auJr-65" target="SkI0lWn-ay7iLgk8auJr-86" edge="1">
          <mxGeometry relative="1" as="geometry">
            <mxPoint x="1255" y="4950" as="sourcePoint" />
            <mxPoint x="555" y="4786" as="targetPoint" />
          </mxGeometry>
        </mxCell>
        <mxCell id="SkI0lWn-ay7iLgk8auJr-129" style="rounded=0;orthogonalLoop=1;jettySize=auto;html=1;exitX=0.5;exitY=0;exitDx=0;exitDy=0;startArrow=none;startFill=0;strokeWidth=1;endArrow=none;endFill=0;strokeColor=#FF8000;entryX=0.5;entryY=1;entryDx=0;entryDy=0;entryPerimeter=0;exitPerimeter=0;" parent="1" source="SkI0lWn-ay7iLgk8auJr-68" target="SkI0lWn-ay7iLgk8auJr-86" edge="1">
          <mxGeometry relative="1" as="geometry">
            <mxPoint x="1285" y="4980" as="sourcePoint" />
            <mxPoint x="585" y="4816" as="targetPoint" />
          </mxGeometry>
        </mxCell>
        <mxCell id="SkI0lWn-ay7iLgk8auJr-130" style="rounded=0;orthogonalLoop=1;jettySize=auto;html=1;exitX=0.5;exitY=0;exitDx=0;exitDy=0;startArrow=none;startFill=0;strokeWidth=1;endArrow=none;endFill=0;strokeColor=#FF8000;entryX=0.5;entryY=1;entryDx=0;entryDy=0;entryPerimeter=0;exitPerimeter=0;" parent="1" source="SkI0lWn-ay7iLgk8auJr-69" target="SkI0lWn-ay7iLgk8auJr-86" edge="1">
          <mxGeometry relative="1" as="geometry">
            <mxPoint x="1295" y="4990" as="sourcePoint" />
            <mxPoint x="595" y="4826" as="targetPoint" />
          </mxGeometry>
        </mxCell>
        <mxCell id="SkI0lWn-ay7iLgk8auJr-131" style="rounded=0;orthogonalLoop=1;jettySize=auto;html=1;exitX=0.5;exitY=0;exitDx=0;exitDy=0;startArrow=none;startFill=0;strokeWidth=1;endArrow=none;endFill=0;strokeColor=#FF8000;exitPerimeter=0;entryX=0.5;entryY=1;entryDx=0;entryDy=0;entryPerimeter=0;" parent="1" source="SkI0lWn-ay7iLgk8auJr-63" target="SkI0lWn-ay7iLgk8auJr-87" edge="1">
          <mxGeometry relative="1" as="geometry">
            <mxPoint x="1155" y="4850" as="sourcePoint" />
            <mxPoint x="1495" y="4670" as="targetPoint" />
          </mxGeometry>
        </mxCell>
        <mxCell id="SkI0lWn-ay7iLgk8auJr-132" style="rounded=0;orthogonalLoop=1;jettySize=auto;html=1;exitX=0.5;exitY=0;exitDx=0;exitDy=0;startArrow=none;startFill=0;strokeWidth=1;endArrow=none;endFill=0;strokeColor=#FF8000;exitPerimeter=0;entryX=0.5;entryY=1;entryDx=0;entryDy=0;entryPerimeter=0;" parent="1" source="SkI0lWn-ay7iLgk8auJr-64" target="SkI0lWn-ay7iLgk8auJr-87" edge="1">
          <mxGeometry relative="1" as="geometry">
            <mxPoint x="1215" y="4850" as="sourcePoint" />
            <mxPoint x="1505" y="4686" as="targetPoint" />
          </mxGeometry>
        </mxCell>
        <mxCell id="SkI0lWn-ay7iLgk8auJr-133" style="rounded=0;orthogonalLoop=1;jettySize=auto;html=1;exitX=0.5;exitY=0;exitDx=0;exitDy=0;startArrow=none;startFill=0;strokeWidth=1;endArrow=none;endFill=0;strokeColor=#FF8000;exitPerimeter=0;entryX=0.5;entryY=1;entryDx=0;entryDy=0;entryPerimeter=0;" parent="1" source="SkI0lWn-ay7iLgk8auJr-65" target="SkI0lWn-ay7iLgk8auJr-87" edge="1">
          <mxGeometry relative="1" as="geometry">
            <mxPoint x="1225" y="4860" as="sourcePoint" />
            <mxPoint x="1515" y="4696" as="targetPoint" />
          </mxGeometry>
        </mxCell>
        <mxCell id="SkI0lWn-ay7iLgk8auJr-136" style="rounded=0;orthogonalLoop=1;jettySize=auto;html=1;exitX=0.5;exitY=0;exitDx=0;exitDy=0;startArrow=none;startFill=0;strokeWidth=1;endArrow=none;endFill=0;strokeColor=#FF8000;exitPerimeter=0;entryX=0.5;entryY=1;entryDx=0;entryDy=0;entryPerimeter=0;" parent="1" source="SkI0lWn-ay7iLgk8auJr-68" target="SkI0lWn-ay7iLgk8auJr-87" edge="1">
          <mxGeometry relative="1" as="geometry">
            <mxPoint x="1255" y="4890" as="sourcePoint" />
            <mxPoint x="1545" y="4726" as="targetPoint" />
          </mxGeometry>
        </mxCell>
        <mxCell id="SkI0lWn-ay7iLgk8auJr-137" style="rounded=0;orthogonalLoop=1;jettySize=auto;html=1;exitX=0.5;exitY=0;exitDx=0;exitDy=0;startArrow=none;startFill=0;strokeWidth=1;endArrow=none;endFill=0;strokeColor=#FF8000;exitPerimeter=0;entryX=0.5;entryY=1;entryDx=0;entryDy=0;entryPerimeter=0;" parent="1" source="SkI0lWn-ay7iLgk8auJr-69" target="SkI0lWn-ay7iLgk8auJr-87" edge="1">
          <mxGeometry relative="1" as="geometry">
            <mxPoint x="1265" y="4900" as="sourcePoint" />
            <mxPoint x="1555" y="4736" as="targetPoint" />
          </mxGeometry>
        </mxCell>
        <mxCell id="SkI0lWn-ay7iLgk8auJr-982" value="&lt;font color=&quot;#3333ff&quot;&gt;&lt;span style=&quot;font-size: 20px;&quot;&gt;S64&lt;/span&gt;&lt;/font&gt;" style="text;strokeColor=none;align=center;fillColor=none;html=1;verticalAlign=middle;whiteSpace=wrap;rounded=0;" parent="1" vertex="1">
          <mxGeometry x="1527.5" y="4606" width="35" height="30" as="geometry" />
        </mxCell>
        <mxCell id="SkI0lWn-ay7iLgk8auJr-988" value="&lt;font color=&quot;#3333ff&quot;&gt;&lt;span style=&quot;font-size: 20px;&quot;&gt;S1&lt;/span&gt;&lt;/font&gt;" style="text;strokeColor=none;align=center;fillColor=none;html=1;verticalAlign=middle;whiteSpace=wrap;rounded=0;" parent="1" vertex="1">
          <mxGeometry x="470.5" y="4603" width="35" height="30" as="geometry" />
        </mxCell>
        <mxCell id="SkI0lWn-ay7iLgk8auJr-989" value="&lt;font color=&quot;#3333ff&quot;&gt;&lt;span style=&quot;font-size: 20px;&quot;&gt;S2&lt;/span&gt;&lt;/font&gt;" style="text;strokeColor=none;align=center;fillColor=none;html=1;verticalAlign=middle;whiteSpace=wrap;rounded=0;" parent="1" vertex="1">
          <mxGeometry x="738" y="4606" width="35" height="30" as="geometry" />
        </mxCell>
        <mxCell id="SkI0lWn-ay7iLgk8auJr-995" value="&lt;font style=&quot;font-size: 36px;&quot; color=&quot;#3333ff&quot;&gt;Server Group 1&lt;/font&gt;" style="text;strokeColor=none;align=center;fillColor=none;html=1;verticalAlign=middle;whiteSpace=wrap;rounded=0;" parent="1" vertex="1">
          <mxGeometry x="435" y="5133" width="265" height="30" as="geometry" />
        </mxCell>
        <mxCell id="SkI0lWn-ay7iLgk8auJr-996" value="&lt;font style=&quot;font-size: 36px;&quot; color=&quot;#3333ff&quot;&gt;Server Group 8&lt;/font&gt;" style="text;strokeColor=none;align=center;fillColor=none;html=1;verticalAlign=middle;whiteSpace=wrap;rounded=0;" parent="1" vertex="1">
          <mxGeometry x="1218" y="5133" width="317" height="30" as="geometry" />
        </mxCell>
        <mxCell id="SkI0lWn-ay7iLgk8auJr-998" value="&lt;font style=&quot;font-size: 20px;&quot; color=&quot;#3333ff&quot;&gt;Server1&lt;/font&gt;" style="text;strokeColor=none;align=center;fillColor=none;html=1;verticalAlign=middle;whiteSpace=wrap;rounded=0;" parent="1" vertex="1">
          <mxGeometry x="350.5" y="5080" width="85" height="30" as="geometry" />
        </mxCell>
        <mxCell id="SkI0lWn-ay7iLgk8auJr-999" value="&lt;font style=&quot;font-size: 20px;&quot; color=&quot;#3333ff&quot;&gt;Server64&lt;/font&gt;" style="text;strokeColor=none;align=center;fillColor=none;html=1;verticalAlign=middle;whiteSpace=wrap;rounded=0;" parent="1" vertex="1">
          <mxGeometry x="732.5" y="5080" width="85" height="30" as="geometry" />
        </mxCell>
        <mxCell id="SkI0lWn-ay7iLgk8auJr-1000" value="&lt;font style=&quot;font-size: 20px;&quot; color=&quot;#3333ff&quot;&gt;Server64&lt;/font&gt;" style="text;strokeColor=none;align=center;fillColor=none;html=1;verticalAlign=middle;whiteSpace=wrap;rounded=0;" parent="1" vertex="1">
          <mxGeometry x="1505" y="5080" width="85" height="30" as="geometry" />
        </mxCell>
        <mxCell id="SkI0lWn-ay7iLgk8auJr-1001" value="&lt;font style=&quot;font-size: 20px;&quot; color=&quot;#3333ff&quot;&gt;Server1&lt;/font&gt;" style="text;strokeColor=none;align=center;fillColor=none;html=1;verticalAlign=middle;whiteSpace=wrap;rounded=0;" parent="1" vertex="1">
          <mxGeometry x="1117.5" y="5080" width="85" height="30" as="geometry" />
        </mxCell>
        <mxCell id="SkI0lWn-ay7iLgk8auJr-1004" value="&lt;font style=&quot;font-size: 38px;&quot; color=&quot;#3333ff&quot;&gt;Leaf&lt;/font&gt;" style="text;strokeColor=none;align=center;fillColor=none;html=1;verticalAlign=middle;whiteSpace=wrap;rounded=0;" parent="1" vertex="1">
          <mxGeometry x="205" y="4843" width="85" height="30" as="geometry" />
        </mxCell>
        <mxCell id="SkI0lWn-ay7iLgk8auJr-1005" value="&lt;font style=&quot;font-size: 38px;&quot; color=&quot;#3333ff&quot;&gt;Spine&lt;/font&gt;" style="text;strokeColor=none;align=center;fillColor=none;html=1;verticalAlign=middle;whiteSpace=wrap;rounded=0;" parent="1" vertex="1">
          <mxGeometry x="210" y="4600" width="85" height="30" as="geometry" />
        </mxCell>
        <mxCell id="6_YDa27rlPbmphGBdpoA-1" value="1" style="rounded=0;whiteSpace=wrap;html=1;fillColor=#008a00;strokeColor=#005700;fontColor=#ffffff;align=center;verticalAlign=middle;fontFamily=Helvetica;fontSize=12;" vertex="1" parent="1">
          <mxGeometry x="310" y="5040" width="10" height="10" as="geometry" />
        </mxCell>
        <mxCell id="6_YDa27rlPbmphGBdpoA-2" value="2" style="rounded=0;whiteSpace=wrap;html=1;fillColor=#1ba1e2;strokeColor=#006EAF;fontColor=#ffffff;" vertex="1" parent="1">
          <mxGeometry x="340" y="5040" width="10" height="10" as="geometry" />
        </mxCell>
        <mxCell id="6_YDa27rlPbmphGBdpoA-3" value="2" style="rounded=0;whiteSpace=wrap;html=1;fillColor=#6a00ff;strokeColor=#3700CC;fontColor=#ffffff;" vertex="1" parent="1">
          <mxGeometry x="360" y="5040" width="10" height="10" as="geometry" />
        </mxCell>
        <mxCell id="6_YDa27rlPbmphGBdpoA-4" value="2" style="rounded=0;whiteSpace=wrap;html=1;fillColor=#a20025;strokeColor=#6F0000;fontColor=#ffffff;" vertex="1" parent="1">
          <mxGeometry x="380" y="5040" width="10" height="10" as="geometry" />
        </mxCell>
        <mxCell id="6_YDa27rlPbmphGBdpoA-6" value="&lt;font color=&quot;#ffffff&quot;&gt;2&lt;/font&gt;" style="rounded=0;whiteSpace=wrap;html=1;fillColor=#ffcd28;strokeColor=#d79b00;gradientColor=#ffa500;" vertex="1" parent="1">
          <mxGeometry x="400" y="5040" width="10" height="10" as="geometry" />
        </mxCell>
        <mxCell id="6_YDa27rlPbmphGBdpoA-7" value="&lt;font color=&quot;#ffffff&quot;&gt;2&lt;/font&gt;" style="rounded=0;whiteSpace=wrap;html=1;fillColor=#0000FF;strokeColor=#7F00FF;" vertex="1" parent="1">
          <mxGeometry x="420" y="5040" width="10" height="10" as="geometry" />
        </mxCell>
        <mxCell id="6_YDa27rlPbmphGBdpoA-8" value="&lt;font color=&quot;#ffffff&quot;&gt;2&lt;/font&gt;" style="rounded=0;whiteSpace=wrap;html=1;fillColor=#e3c800;strokeColor=#B09500;fontColor=#000000;" vertex="1" parent="1">
          <mxGeometry x="440" y="5040" width="10" height="10" as="geometry" />
        </mxCell>
        <mxCell id="6_YDa27rlPbmphGBdpoA-9" value="2" style="rounded=0;whiteSpace=wrap;html=1;fillColor=#0050ef;strokeColor=#001DBC;fontColor=#ffffff;" vertex="1" parent="1">
          <mxGeometry x="460.5" y="5040" width="10" height="10" as="geometry" />
        </mxCell>
        <mxCell id="6_YDa27rlPbmphGBdpoA-10" value="" style="shape=mxgraph.rack.ibm.ibm_x3630_m3;html=1;labelPosition=right;align=left;spacingLeft=15;dashed=0;shadow=0;fillColor=#ffffff;" vertex="1" parent="1">
          <mxGeometry x="680" y="5050" width="160" height="30" as="geometry" />
        </mxCell>
        <mxCell id="6_YDa27rlPbmphGBdpoA-11" value="2" style="rounded=0;whiteSpace=wrap;html=1;fillColor=#008a00;strokeColor=#005700;fontColor=#ffffff;" vertex="1" parent="1">
          <mxGeometry x="690" y="5040" width="10" height="10" as="geometry" />
        </mxCell>
        <mxCell id="6_YDa27rlPbmphGBdpoA-12" value="&lt;font color=&quot;#ffffff&quot;&gt;1&lt;/font&gt;" style="rounded=0;whiteSpace=wrap;html=1;fillColor=#ffcd28;strokeColor=#d79b00;gradientColor=#ffa500;" vertex="1" parent="1">
          <mxGeometry x="760" y="5040" width="10" height="10" as="geometry" />
        </mxCell>
        <mxCell id="6_YDa27rlPbmphGBdpoA-13" value="1" style="rounded=0;whiteSpace=wrap;html=1;fillColor=#6a00ff;strokeColor=#3700CC;fontColor=#ffffff;" vertex="1" parent="1">
          <mxGeometry x="720" y="5040" width="10" height="10" as="geometry" />
        </mxCell>
        <mxCell id="6_YDa27rlPbmphGBdpoA-14" value="1" style="rounded=0;whiteSpace=wrap;html=1;fillColor=#1ba1e2;strokeColor=#006EAF;fontColor=#ffffff;" vertex="1" parent="1">
          <mxGeometry x="700" y="5040" width="10" height="10" as="geometry" />
        </mxCell>
        <mxCell id="6_YDa27rlPbmphGBdpoA-15" value="&lt;font color=&quot;#ffffff&quot;&gt;1&lt;/font&gt;" style="rounded=0;whiteSpace=wrap;html=1;fillColor=#0000FF;strokeColor=#7F00FF;" vertex="1" parent="1">
          <mxGeometry x="780" y="5040" width="10" height="10" as="geometry" />
        </mxCell>
        <mxCell id="6_YDa27rlPbmphGBdpoA-16" value="1" style="rounded=0;whiteSpace=wrap;html=1;fillColor=#a20025;strokeColor=#6F0000;fontColor=#ffffff;" vertex="1" parent="1">
          <mxGeometry x="740" y="5040" width="10" height="10" as="geometry" />
        </mxCell>
        <mxCell id="6_YDa27rlPbmphGBdpoA-17" value="&lt;font color=&quot;#ffffff&quot;&gt;1&lt;/font&gt;" style="rounded=0;whiteSpace=wrap;html=1;fillColor=#e3c800;strokeColor=#B09500;fontColor=#000000;" vertex="1" parent="1">
          <mxGeometry x="800" y="5040" width="10" height="10" as="geometry" />
        </mxCell>
        <mxCell id="6_YDa27rlPbmphGBdpoA-18" value="1" style="rounded=0;whiteSpace=wrap;html=1;fillColor=#0050ef;strokeColor=#001DBC;fontColor=#ffffff;" vertex="1" parent="1">
          <mxGeometry x="820" y="5040" width="10" height="10" as="geometry" />
        </mxCell>
        <mxCell id="6_YDa27rlPbmphGBdpoA-19" value="1" style="rounded=0;whiteSpace=wrap;html=1;fillColor=#008a00;strokeColor=#005700;fontColor=#ffffff;align=center;verticalAlign=middle;fontFamily=Helvetica;fontSize=12;" vertex="1" parent="1">
          <mxGeometry x="680" y="5040" width="10" height="10" as="geometry" />
        </mxCell>
        <mxCell id="6_YDa27rlPbmphGBdpoA-20" value="2" style="rounded=0;whiteSpace=wrap;html=1;fillColor=#1ba1e2;strokeColor=#006EAF;fontColor=#ffffff;" vertex="1" parent="1">
          <mxGeometry x="710" y="5040" width="10" height="10" as="geometry" />
        </mxCell>
        <mxCell id="6_YDa27rlPbmphGBdpoA-21" value="2" style="rounded=0;whiteSpace=wrap;html=1;fillColor=#6a00ff;strokeColor=#3700CC;fontColor=#ffffff;" vertex="1" parent="1">
          <mxGeometry x="730" y="5040" width="10" height="10" as="geometry" />
        </mxCell>
        <mxCell id="6_YDa27rlPbmphGBdpoA-22" value="2" style="rounded=0;whiteSpace=wrap;html=1;fillColor=#a20025;strokeColor=#6F0000;fontColor=#ffffff;" vertex="1" parent="1">
          <mxGeometry x="750" y="5040" width="10" height="10" as="geometry" />
        </mxCell>
        <mxCell id="6_YDa27rlPbmphGBdpoA-23" value="&lt;font color=&quot;#ffffff&quot;&gt;2&lt;/font&gt;" style="rounded=0;whiteSpace=wrap;html=1;fillColor=#ffcd28;strokeColor=#d79b00;gradientColor=#ffa500;" vertex="1" parent="1">
          <mxGeometry x="770" y="5040" width="10" height="10" as="geometry" />
        </mxCell>
        <mxCell id="6_YDa27rlPbmphGBdpoA-24" value="&lt;font color=&quot;#ffffff&quot;&gt;2&lt;/font&gt;" style="rounded=0;whiteSpace=wrap;html=1;fillColor=#0000FF;strokeColor=#7F00FF;" vertex="1" parent="1">
          <mxGeometry x="790" y="5040" width="10" height="10" as="geometry" />
        </mxCell>
        <mxCell id="6_YDa27rlPbmphGBdpoA-25" value="&lt;font color=&quot;#ffffff&quot;&gt;2&lt;/font&gt;" style="rounded=0;whiteSpace=wrap;html=1;fillColor=#e3c800;strokeColor=#B09500;fontColor=#000000;" vertex="1" parent="1">
          <mxGeometry x="810" y="5040" width="10" height="10" as="geometry" />
        </mxCell>
        <mxCell id="6_YDa27rlPbmphGBdpoA-26" value="2" style="rounded=0;whiteSpace=wrap;html=1;fillColor=#0050ef;strokeColor=#001DBC;fontColor=#ffffff;" vertex="1" parent="1">
          <mxGeometry x="830.5" y="5040" width="10" height="10" as="geometry" />
        </mxCell>
        <mxCell id="6_YDa27rlPbmphGBdpoA-27" value="&lt;font style=&quot;font-size: 20px;&quot; color=&quot;#3333ff&quot;&gt;L2&lt;/font&gt;" style="text;strokeColor=none;align=center;fillColor=none;html=1;verticalAlign=middle;whiteSpace=wrap;rounded=0;" vertex="1" parent="1">
          <mxGeometry x="420" y="4876" width="35" height="30" as="geometry" />
        </mxCell>
        <mxCell id="6_YDa27rlPbmphGBdpoA-28" style="rounded=0;orthogonalLoop=1;jettySize=auto;html=1;startArrow=none;startFill=0;strokeWidth=1;endArrow=none;endFill=0;strokeColor=#FF8000;entryX=0.5;entryY=1;entryDx=0;entryDy=0;entryPerimeter=0;exitX=0.5;exitY=0;exitDx=0;exitDy=0;" edge="1" parent="1" source="SkI0lWn-ay7iLgk8auJr-7" target="SkI0lWn-ay7iLgk8auJr-22">
          <mxGeometry relative="1" as="geometry">
            <mxPoint x="335" y="5050" as="sourcePoint" />
            <mxPoint x="445" y="4886" as="targetPoint" />
          </mxGeometry>
        </mxCell>
        <mxCell id="6_YDa27rlPbmphGBdpoA-29" style="rounded=0;orthogonalLoop=1;jettySize=auto;html=1;startArrow=none;startFill=0;strokeWidth=1;endArrow=none;endFill=0;strokeColor=#FF8000;entryX=0.5;entryY=1;entryDx=0;entryDy=0;entryPerimeter=0;exitX=0.5;exitY=0;exitDx=0;exitDy=0;" edge="1" parent="1" source="6_YDa27rlPbmphGBdpoA-2" target="SkI0lWn-ay7iLgk8auJr-23">
          <mxGeometry relative="1" as="geometry">
            <mxPoint x="345" y="5050" as="sourcePoint" />
            <mxPoint x="505" y="4886" as="targetPoint" />
          </mxGeometry>
        </mxCell>
        <mxCell id="6_YDa27rlPbmphGBdpoA-30" style="rounded=0;orthogonalLoop=1;jettySize=auto;html=1;startArrow=none;startFill=0;strokeWidth=1;endArrow=none;endFill=0;strokeColor=#FF8000;entryX=0.5;entryY=1;entryDx=0;entryDy=0;entryPerimeter=0;exitX=0.5;exitY=0;exitDx=0;exitDy=0;" edge="1" parent="1" source="6_YDa27rlPbmphGBdpoA-14" target="SkI0lWn-ay7iLgk8auJr-22">
          <mxGeometry relative="1" as="geometry">
            <mxPoint x="355" y="5050" as="sourcePoint" />
            <mxPoint x="565" y="4886" as="targetPoint" />
          </mxGeometry>
        </mxCell>
        <mxCell id="6_YDa27rlPbmphGBdpoA-31" style="rounded=0;orthogonalLoop=1;jettySize=auto;html=1;startArrow=none;startFill=0;strokeWidth=1;endArrow=none;endFill=0;strokeColor=#FF8000;entryX=0.5;entryY=1;entryDx=0;entryDy=0;entryPerimeter=0;exitX=0.5;exitY=0;exitDx=0;exitDy=0;" edge="1" parent="1" source="6_YDa27rlPbmphGBdpoA-20" target="SkI0lWn-ay7iLgk8auJr-23">
          <mxGeometry relative="1" as="geometry">
            <mxPoint x="715" y="5050" as="sourcePoint" />
            <mxPoint x="505" y="4886" as="targetPoint" />
          </mxGeometry>
        </mxCell>
        <mxCell id="6_YDa27rlPbmphGBdpoA-32" value="&lt;font style=&quot;font-size: 50px;&quot;&gt;...&lt;/font&gt;" style="text;strokeColor=none;align=center;fillColor=none;html=1;verticalAlign=middle;whiteSpace=wrap;rounded=0;" vertex="1" parent="1">
          <mxGeometry x="620" y="4820" width="60" height="50" as="geometry" />
        </mxCell>
        <mxCell id="6_YDa27rlPbmphGBdpoA-33" value="" style="shape=mxgraph.rack.ibm.ibm_x3630_m3;html=1;labelPosition=right;align=left;spacingLeft=15;dashed=0;shadow=0;fillColor=#ffffff;" vertex="1" parent="1">
          <mxGeometry x="1110" y="5050" width="160" height="30" as="geometry" />
        </mxCell>
        <mxCell id="6_YDa27rlPbmphGBdpoA-34" value="2" style="rounded=0;whiteSpace=wrap;html=1;fillColor=#008a00;strokeColor=#005700;fontColor=#ffffff;" vertex="1" parent="1">
          <mxGeometry x="1120" y="5040" width="10" height="10" as="geometry" />
        </mxCell>
        <mxCell id="6_YDa27rlPbmphGBdpoA-35" value="&lt;font color=&quot;#ffffff&quot;&gt;1&lt;/font&gt;" style="rounded=0;whiteSpace=wrap;html=1;fillColor=#ffcd28;strokeColor=#d79b00;gradientColor=#ffa500;" vertex="1" parent="1">
          <mxGeometry x="1190" y="5040" width="10" height="10" as="geometry" />
        </mxCell>
        <mxCell id="6_YDa27rlPbmphGBdpoA-36" value="1" style="rounded=0;whiteSpace=wrap;html=1;fillColor=#6a00ff;strokeColor=#3700CC;fontColor=#ffffff;" vertex="1" parent="1">
          <mxGeometry x="1150" y="5040" width="10" height="10" as="geometry" />
        </mxCell>
        <mxCell id="6_YDa27rlPbmphGBdpoA-37" value="1" style="rounded=0;whiteSpace=wrap;html=1;fillColor=#1ba1e2;strokeColor=#006EAF;fontColor=#ffffff;" vertex="1" parent="1">
          <mxGeometry x="1130" y="5040" width="10" height="10" as="geometry" />
        </mxCell>
        <mxCell id="6_YDa27rlPbmphGBdpoA-38" value="&lt;font color=&quot;#ffffff&quot;&gt;1&lt;/font&gt;" style="rounded=0;whiteSpace=wrap;html=1;fillColor=#0000FF;strokeColor=#7F00FF;" vertex="1" parent="1">
          <mxGeometry x="1210" y="5040" width="10" height="10" as="geometry" />
        </mxCell>
        <mxCell id="6_YDa27rlPbmphGBdpoA-39" value="1" style="rounded=0;whiteSpace=wrap;html=1;fillColor=#a20025;strokeColor=#6F0000;fontColor=#ffffff;" vertex="1" parent="1">
          <mxGeometry x="1170" y="5040" width="10" height="10" as="geometry" />
        </mxCell>
        <mxCell id="6_YDa27rlPbmphGBdpoA-40" value="&lt;font color=&quot;#ffffff&quot;&gt;1&lt;/font&gt;" style="rounded=0;whiteSpace=wrap;html=1;fillColor=#e3c800;strokeColor=#B09500;fontColor=#000000;" vertex="1" parent="1">
          <mxGeometry x="1230" y="5040" width="10" height="10" as="geometry" />
        </mxCell>
        <mxCell id="6_YDa27rlPbmphGBdpoA-41" value="1" style="rounded=0;whiteSpace=wrap;html=1;fillColor=#0050ef;strokeColor=#001DBC;fontColor=#ffffff;" vertex="1" parent="1">
          <mxGeometry x="1250" y="5040" width="10" height="10" as="geometry" />
        </mxCell>
        <mxCell id="6_YDa27rlPbmphGBdpoA-42" value="1" style="rounded=0;whiteSpace=wrap;html=1;fillColor=#008a00;strokeColor=#005700;fontColor=#ffffff;align=center;verticalAlign=middle;fontFamily=Helvetica;fontSize=12;" vertex="1" parent="1">
          <mxGeometry x="1110" y="5040" width="10" height="10" as="geometry" />
        </mxCell>
        <mxCell id="6_YDa27rlPbmphGBdpoA-43" value="2" style="rounded=0;whiteSpace=wrap;html=1;fillColor=#1ba1e2;strokeColor=#006EAF;fontColor=#ffffff;" vertex="1" parent="1">
          <mxGeometry x="1140" y="5040" width="10" height="10" as="geometry" />
        </mxCell>
        <mxCell id="6_YDa27rlPbmphGBdpoA-44" value="2" style="rounded=0;whiteSpace=wrap;html=1;fillColor=#6a00ff;strokeColor=#3700CC;fontColor=#ffffff;" vertex="1" parent="1">
          <mxGeometry x="1160" y="5040" width="10" height="10" as="geometry" />
        </mxCell>
        <mxCell id="6_YDa27rlPbmphGBdpoA-45" value="2" style="rounded=0;whiteSpace=wrap;html=1;fillColor=#a20025;strokeColor=#6F0000;fontColor=#ffffff;" vertex="1" parent="1">
          <mxGeometry x="1180" y="5040" width="10" height="10" as="geometry" />
        </mxCell>
        <mxCell id="6_YDa27rlPbmphGBdpoA-46" value="&lt;font color=&quot;#ffffff&quot;&gt;2&lt;/font&gt;" style="rounded=0;whiteSpace=wrap;html=1;fillColor=#ffcd28;strokeColor=#d79b00;gradientColor=#ffa500;" vertex="1" parent="1">
          <mxGeometry x="1200" y="5040" width="10" height="10" as="geometry" />
        </mxCell>
        <mxCell id="6_YDa27rlPbmphGBdpoA-47" value="&lt;font color=&quot;#ffffff&quot;&gt;2&lt;/font&gt;" style="rounded=0;whiteSpace=wrap;html=1;fillColor=#0000FF;strokeColor=#7F00FF;" vertex="1" parent="1">
          <mxGeometry x="1220" y="5040" width="10" height="10" as="geometry" />
        </mxCell>
        <mxCell id="6_YDa27rlPbmphGBdpoA-48" value="&lt;font color=&quot;#ffffff&quot;&gt;2&lt;/font&gt;" style="rounded=0;whiteSpace=wrap;html=1;fillColor=#e3c800;strokeColor=#B09500;fontColor=#000000;" vertex="1" parent="1">
          <mxGeometry x="1240" y="5040" width="10" height="10" as="geometry" />
        </mxCell>
        <mxCell id="6_YDa27rlPbmphGBdpoA-49" value="2" style="rounded=0;whiteSpace=wrap;html=1;fillColor=#0050ef;strokeColor=#001DBC;fontColor=#ffffff;" vertex="1" parent="1">
          <mxGeometry x="1260.5" y="5040" width="10" height="10" as="geometry" />
        </mxCell>
        <mxCell id="6_YDa27rlPbmphGBdpoA-50" value="" style="shape=mxgraph.rack.ibm.ibm_x3630_m3;html=1;labelPosition=right;align=left;spacingLeft=15;dashed=0;shadow=0;fillColor=#ffffff;" vertex="1" parent="1">
          <mxGeometry x="1455" y="5050" width="160" height="30" as="geometry" />
        </mxCell>
        <mxCell id="6_YDa27rlPbmphGBdpoA-51" value="2" style="rounded=0;whiteSpace=wrap;html=1;fillColor=#008a00;strokeColor=#005700;fontColor=#ffffff;" vertex="1" parent="1">
          <mxGeometry x="1465" y="5040" width="10" height="10" as="geometry" />
        </mxCell>
        <mxCell id="6_YDa27rlPbmphGBdpoA-52" value="&lt;font color=&quot;#ffffff&quot;&gt;1&lt;/font&gt;" style="rounded=0;whiteSpace=wrap;html=1;fillColor=#ffcd28;strokeColor=#d79b00;gradientColor=#ffa500;" vertex="1" parent="1">
          <mxGeometry x="1535" y="5040" width="10" height="10" as="geometry" />
        </mxCell>
        <mxCell id="6_YDa27rlPbmphGBdpoA-53" value="1" style="rounded=0;whiteSpace=wrap;html=1;fillColor=#6a00ff;strokeColor=#3700CC;fontColor=#ffffff;" vertex="1" parent="1">
          <mxGeometry x="1495" y="5040" width="10" height="10" as="geometry" />
        </mxCell>
        <mxCell id="6_YDa27rlPbmphGBdpoA-54" value="1" style="rounded=0;whiteSpace=wrap;html=1;fillColor=#1ba1e2;strokeColor=#006EAF;fontColor=#ffffff;" vertex="1" parent="1">
          <mxGeometry x="1475" y="5040" width="10" height="10" as="geometry" />
        </mxCell>
        <mxCell id="6_YDa27rlPbmphGBdpoA-55" value="&lt;font color=&quot;#ffffff&quot;&gt;1&lt;/font&gt;" style="rounded=0;whiteSpace=wrap;html=1;fillColor=#0000FF;strokeColor=#7F00FF;" vertex="1" parent="1">
          <mxGeometry x="1555" y="5040" width="10" height="10" as="geometry" />
        </mxCell>
        <mxCell id="6_YDa27rlPbmphGBdpoA-56" value="1" style="rounded=0;whiteSpace=wrap;html=1;fillColor=#a20025;strokeColor=#6F0000;fontColor=#ffffff;" vertex="1" parent="1">
          <mxGeometry x="1515" y="5040" width="10" height="10" as="geometry" />
        </mxCell>
        <mxCell id="6_YDa27rlPbmphGBdpoA-57" value="&lt;font color=&quot;#ffffff&quot;&gt;1&lt;/font&gt;" style="rounded=0;whiteSpace=wrap;html=1;fillColor=#e3c800;strokeColor=#B09500;fontColor=#000000;" vertex="1" parent="1">
          <mxGeometry x="1575" y="5040" width="10" height="10" as="geometry" />
        </mxCell>
        <mxCell id="6_YDa27rlPbmphGBdpoA-58" value="1" style="rounded=0;whiteSpace=wrap;html=1;fillColor=#0050ef;strokeColor=#001DBC;fontColor=#ffffff;" vertex="1" parent="1">
          <mxGeometry x="1595" y="5040" width="10" height="10" as="geometry" />
        </mxCell>
        <mxCell id="6_YDa27rlPbmphGBdpoA-59" value="1" style="rounded=0;whiteSpace=wrap;html=1;fillColor=#008a00;strokeColor=#005700;fontColor=#ffffff;align=center;verticalAlign=middle;fontFamily=Helvetica;fontSize=12;" vertex="1" parent="1">
          <mxGeometry x="1455" y="5040" width="10" height="10" as="geometry" />
        </mxCell>
        <mxCell id="6_YDa27rlPbmphGBdpoA-60" value="2" style="rounded=0;whiteSpace=wrap;html=1;fillColor=#1ba1e2;strokeColor=#006EAF;fontColor=#ffffff;" vertex="1" parent="1">
          <mxGeometry x="1485" y="5040" width="10" height="10" as="geometry" />
        </mxCell>
        <mxCell id="6_YDa27rlPbmphGBdpoA-61" value="2" style="rounded=0;whiteSpace=wrap;html=1;fillColor=#6a00ff;strokeColor=#3700CC;fontColor=#ffffff;" vertex="1" parent="1">
          <mxGeometry x="1505" y="5040" width="10" height="10" as="geometry" />
        </mxCell>
        <mxCell id="6_YDa27rlPbmphGBdpoA-62" value="2" style="rounded=0;whiteSpace=wrap;html=1;fillColor=#a20025;strokeColor=#6F0000;fontColor=#ffffff;" vertex="1" parent="1">
          <mxGeometry x="1525" y="5040" width="10" height="10" as="geometry" />
        </mxCell>
        <mxCell id="6_YDa27rlPbmphGBdpoA-63" value="&lt;font color=&quot;#ffffff&quot;&gt;2&lt;/font&gt;" style="rounded=0;whiteSpace=wrap;html=1;fillColor=#ffcd28;strokeColor=#d79b00;gradientColor=#ffa500;" vertex="1" parent="1">
          <mxGeometry x="1545" y="5040" width="10" height="10" as="geometry" />
        </mxCell>
        <mxCell id="6_YDa27rlPbmphGBdpoA-64" value="&lt;font color=&quot;#ffffff&quot;&gt;2&lt;/font&gt;" style="rounded=0;whiteSpace=wrap;html=1;fillColor=#0000FF;strokeColor=#7F00FF;" vertex="1" parent="1">
          <mxGeometry x="1565" y="5040" width="10" height="10" as="geometry" />
        </mxCell>
        <mxCell id="6_YDa27rlPbmphGBdpoA-65" value="&lt;font color=&quot;#ffffff&quot;&gt;2&lt;/font&gt;" style="rounded=0;whiteSpace=wrap;html=1;fillColor=#e3c800;strokeColor=#B09500;fontColor=#000000;" vertex="1" parent="1">
          <mxGeometry x="1585" y="5040" width="10" height="10" as="geometry" />
        </mxCell>
        <mxCell id="6_YDa27rlPbmphGBdpoA-66" value="2" style="rounded=0;whiteSpace=wrap;html=1;fillColor=#0050ef;strokeColor=#001DBC;fontColor=#ffffff;" vertex="1" parent="1">
          <mxGeometry x="1605.5" y="5040" width="10" height="10" as="geometry" />
        </mxCell>
        <mxCell id="6_YDa27rlPbmphGBdpoA-67" value="&lt;font style=&quot;font-size: 50px;&quot;&gt;...&lt;/font&gt;" style="text;strokeColor=none;align=center;fillColor=none;html=1;verticalAlign=middle;whiteSpace=wrap;rounded=0;" vertex="1" parent="1">
          <mxGeometry x="1380" y="4823" width="60" height="50" as="geometry" />
        </mxCell>
        <mxCell id="6_YDa27rlPbmphGBdpoA-69" value="&lt;font style=&quot;font-size: 20px;&quot; color=&quot;#3333ff&quot;&gt;L3&lt;/font&gt;" style="text;strokeColor=none;align=center;fillColor=none;html=1;verticalAlign=middle;whiteSpace=wrap;rounded=0;" vertex="1" parent="1">
          <mxGeometry x="480" y="4876" width="35" height="30" as="geometry" />
        </mxCell>
        <mxCell id="6_YDa27rlPbmphGBdpoA-70" value="&lt;font style=&quot;font-size: 20px;&quot; color=&quot;#3333ff&quot;&gt;L4&lt;/font&gt;" style="text;strokeColor=none;align=center;fillColor=none;html=1;verticalAlign=middle;whiteSpace=wrap;rounded=0;" vertex="1" parent="1">
          <mxGeometry x="537.5" y="4876" width="35" height="30" as="geometry" />
        </mxCell>
        <mxCell id="6_YDa27rlPbmphGBdpoA-71" value="&lt;font style=&quot;font-size: 20px;&quot; color=&quot;#3333ff&quot;&gt;L15&lt;/font&gt;" style="text;strokeColor=none;align=center;fillColor=none;html=1;verticalAlign=middle;whiteSpace=wrap;rounded=0;" vertex="1" parent="1">
          <mxGeometry x="715" y="4880" width="35" height="30" as="geometry" />
        </mxCell>
        <mxCell id="6_YDa27rlPbmphGBdpoA-72" value="&lt;font style=&quot;font-size: 20px;&quot; color=&quot;#3333ff&quot;&gt;L2&lt;/font&gt;" style="text;strokeColor=none;align=center;fillColor=none;html=1;verticalAlign=middle;whiteSpace=wrap;rounded=0;" vertex="1" parent="1">
          <mxGeometry x="1190" y="4873" width="35" height="30" as="geometry" />
        </mxCell>
        <mxCell id="6_YDa27rlPbmphGBdpoA-73" value="&lt;font style=&quot;font-size: 20px;&quot; color=&quot;#3333ff&quot;&gt;L3&lt;/font&gt;" style="text;strokeColor=none;align=center;fillColor=none;html=1;verticalAlign=middle;whiteSpace=wrap;rounded=0;" vertex="1" parent="1">
          <mxGeometry x="1250" y="4873" width="35" height="30" as="geometry" />
        </mxCell>
        <mxCell id="6_YDa27rlPbmphGBdpoA-74" value="&lt;font style=&quot;font-size: 20px;&quot; color=&quot;#3333ff&quot;&gt;L4&lt;/font&gt;" style="text;strokeColor=none;align=center;fillColor=none;html=1;verticalAlign=middle;whiteSpace=wrap;rounded=0;" vertex="1" parent="1">
          <mxGeometry x="1307.5" y="4873" width="35" height="30" as="geometry" />
        </mxCell>
        <mxCell id="6_YDa27rlPbmphGBdpoA-75" value="&lt;font style=&quot;font-size: 20px;&quot; color=&quot;#3333ff&quot;&gt;L15&lt;/font&gt;" style="text;strokeColor=none;align=center;fillColor=none;html=1;verticalAlign=middle;whiteSpace=wrap;rounded=0;" vertex="1" parent="1">
          <mxGeometry x="1485" y="4873" width="35" height="30" as="geometry" />
        </mxCell>
        <mxCell id="6_YDa27rlPbmphGBdpoA-77" value="&lt;font style=&quot;font-size: 20px;&quot; color=&quot;#3333ff&quot;&gt;L1&lt;/font&gt;" style="text;strokeColor=none;align=center;fillColor=none;html=1;verticalAlign=middle;whiteSpace=wrap;rounded=0;" vertex="1" parent="1">
          <mxGeometry x="1127.5" y="4873" width="35" height="30" as="geometry" />
        </mxCell>
        <mxCell id="6_YDa27rlPbmphGBdpoA-79" value="&lt;font style=&quot;font-size: 20px;&quot; color=&quot;#3333ff&quot;&gt;L16&lt;/font&gt;" style="text;strokeColor=none;align=center;fillColor=none;html=1;verticalAlign=middle;whiteSpace=wrap;rounded=0;" vertex="1" parent="1">
          <mxGeometry x="1547.5" y="4870" width="35" height="30" as="geometry" />
        </mxCell>
        <mxCell id="6_YDa27rlPbmphGBdpoA-80" value="&lt;font style=&quot;font-size: 20px;&quot; color=&quot;#3333ff&quot;&gt;L1&lt;/font&gt;" style="text;strokeColor=none;align=center;fillColor=none;html=1;verticalAlign=middle;whiteSpace=wrap;rounded=0;" vertex="1" parent="1">
          <mxGeometry x="355" y="4876" width="35" height="30" as="geometry" />
        </mxCell>
        <mxCell id="6_YDa27rlPbmphGBdpoA-82" value="" style="rounded=0;orthogonalLoop=1;jettySize=auto;html=1;startArrow=none;startFill=0;strokeWidth=1;endArrow=none;endFill=0;strokeColor=#FF8000;entryX=0.5;entryY=1;entryDx=0;entryDy=0;entryPerimeter=0;exitX=0.5;exitY=0;exitDx=0;exitDy=0;" edge="1" parent="1" source="6_YDa27rlPbmphGBdpoA-26" target="SkI0lWn-ay7iLgk8auJr-27">
          <mxGeometry relative="1" as="geometry">
            <mxPoint x="836" y="5040" as="sourcePoint" />
            <mxPoint x="807.5" y="4910" as="targetPoint" />
          </mxGeometry>
        </mxCell>
        <mxCell id="6_YDa27rlPbmphGBdpoA-85" value="&lt;font style=&quot;font-size: 20px;&quot; color=&quot;#3333ff&quot;&gt;L16&lt;/font&gt;" style="text;strokeColor=none;align=center;fillColor=none;html=1;verticalAlign=middle;whiteSpace=wrap;rounded=0;" vertex="1" parent="1">
          <mxGeometry x="780" y="4875" width="35" height="30" as="geometry" />
        </mxCell>
      </root>
    </mxGraphModel>
  </diagram>
</mxfile>
